<svg width="136" height="22" viewBox="0 0 136 22" fill="none" xmlns="http://www.w3.org/2000/svg">
<g clip-path="url(#clip0_2_3)">
<path d="M87.1411 1.34266C92.4295 1.34266 96.7324 5.67833 96.7324 11.007C96.7324 16.3357 92.4295 20.6713 87.1411 20.6713C81.8526 20.6713 77.5497 16.3357 77.5497 11.007C77.5497 5.67833 81.8526 1.34266 87.1411 1.34266M87.1411 0.0839233C81.1586 0.0839233 76.3005 4.97903 76.3005 11.007C76.3005 17.035 81.1586 21.9301 87.1411 21.9301C93.1235 21.9301 97.9816 17.035 97.9816 11.007C97.9816 4.97903 93.1235 0.0839233 87.1411 0.0839233V0.0839233Z" fill="white"/>
<path d="M22.7083 0H0V1.25874H22.7083V0Z" fill="white"/>
<path d="M22.7083 20.7413H0V22H22.7083V20.7413Z" fill="white"/>
<path d="M22.7083 10.3776H0V11.6364H22.7083V10.3776Z" fill="white"/>
<path d="M58.714 0L49.2476 19.1049L39.7812 0H38.3793L49.2476 21.9301L60.1021 0H58.714Z" fill="white"/>
<path d="M135.806 0H134.029L115.332 18.8531V0H114.083V21.8881L124.091 11.7902L134.223 22H136L124.979 10.9091L135.806 0Z" fill="white"/>
</g>
<defs>
<clipPath id="clip0_2_3">
<rect width="136" height="22" fill="white"/>
</clipPath>
</defs>
</svg>
