<svg width="28" height="28" viewBox="0 0 28 28" fill="none" xmlns="http://www.w3.org/2000/svg">
<g clip-path="url(#clip0_209_84)">
<rect width="28" height="28" fill="#282828"/>
<path d="M8 8C8 6.34315 9.34315 5 11 5H14V11H11C9.34315 11 8 9.65685 8 8Z" fill="#EB673E"/>
<path d="M8 14C8 12.3431 9.34315 11 11 11H14V17H11C9.34315 17 8 15.6569 8 14Z" fill="#A46FF7"/>
<path d="M8 20C8 18.3431 9.34315 17 11 17H14V20C14 21.6569 12.6569 23 11 23C9.34315 23 8 21.6569 8 20Z" fill="#66D996"/>
<path d="M20 8C20 9.65685 18.6569 11 17 11L14 11L14 5L17 5C18.6569 5 20 6.34315 20 8Z" fill="#EF8A7C"/>
<rect x="20" y="17" width="6" height="6" rx="3" transform="rotate(-180 20 17)" fill="#70C8FA"/>
</g>
<defs>
<clipPath id="clip0_209_84">
<rect width="28" height="28" rx="8" fill="white"/>
</clipPath>
</defs>
</svg>
