<svg width="28" height="28" viewBox="0 0 28 28" fill="none" xmlns="http://www.w3.org/2000/svg">
<g clip-path="url(#clip0_12_317)">
<rect width="28" height="28" fill="#282828"/>
<path d="M14.1709 15.623H11.6963V13.7705H14.1709C14.5081 13.7705 14.7816 13.7135 14.9912 13.5996C15.2008 13.4857 15.3535 13.3285 15.4492 13.1279C15.5495 12.9229 15.5996 12.6927 15.5996 12.4375C15.5996 12.1641 15.5495 11.9111 15.4492 11.6787C15.3535 11.4463 15.2008 11.2594 14.9912 11.1182C14.7816 10.9723 14.5081 10.8994 14.1709 10.8994H12.5986V19H10.1992V9.04688H14.1709C14.9684 9.04688 15.6543 9.19271 16.2285 9.48438C16.8073 9.77604 17.2516 10.1771 17.5615 10.6875C17.8714 11.1934 18.0264 11.7721 18.0264 12.4238C18.0264 13.0664 17.8714 13.627 17.5615 14.1055C17.2516 14.584 16.8073 14.9577 16.2285 15.2266C15.6543 15.4909 14.9684 15.623 14.1709 15.623Z" fill="#68AEFF"/>
</g>
<defs>
<clipPath id="clip0_12_317">
<rect width="28" height="28" rx="8" fill="white"/>
</clipPath>
</defs>
</svg>
