<svg width="28" height="28" viewBox="0 0 28 28" fill="none" xmlns="http://www.w3.org/2000/svg">
<g clip-path="url(#clip0_209_88)">
<rect width="28" height="28" fill="#591E75"/>
<path d="M7.84082 9.04688L9.46777 12.3555L11.0947 9.04688H13.8291L11.0537 13.9824L13.9043 19H11.1426L9.46777 15.6299L7.79297 19H5.02441L7.88184 13.9824L5.09961 9.04688H7.84082ZM17.9307 19H15.7227L15.7363 17.1543H17.9307C18.3864 17.1543 18.7715 17.0449 19.0859 16.8262C19.4049 16.6074 19.6465 16.2816 19.8105 15.8486C19.9792 15.4111 20.0635 14.8734 20.0635 14.2354V13.8047C20.0635 13.3262 20.0156 12.9069 19.9199 12.5469C19.8288 12.1823 19.6921 11.8792 19.5098 11.6377C19.3275 11.3916 19.0996 11.207 18.8262 11.084C18.5573 10.9609 18.2474 10.8994 17.8965 10.8994H15.6816V9.04688H17.8965C18.571 9.04688 19.1885 9.16309 19.749 9.39551C20.3141 9.62337 20.8018 9.9515 21.2119 10.3799C21.6266 10.8037 21.9456 11.3073 22.1689 11.8906C22.3968 12.4694 22.5107 13.112 22.5107 13.8184V14.2354C22.5107 14.9372 22.3968 15.5798 22.1689 16.1631C21.9456 16.7464 21.6289 17.25 21.2188 17.6738C20.8086 18.0977 20.3232 18.4258 19.7627 18.6582C19.2067 18.8861 18.596 19 17.9307 19ZM17.0967 9.04688V19H14.6973V9.04688H17.0967Z" fill="#B43CEC"/>
</g>
<defs>
<clipPath id="clip0_209_88">
<rect width="28" height="28" rx="8" fill="white"/>
</clipPath>
</defs>
</svg>
